<svg id="Layer_1" data-name="Layer 1" xmlns="http://www.w3.org/2000/svg" viewBox="0 0 686.81 764.39"><defs><style>.cls-1{fill:#58120b;}.cls-2{fill:none;stroke:#fff;stroke-miterlimit:10;stroke-width:10px;}.cls-3,.cls-6{fill:#a3a3a3;}.cls-4{fill:#fff;}.cls-5{fill:#57120b;}.cls-6{isolation:isolate;font-size:145.47px;font-family:VladimirScript, Vladimir Script;}</style></defs><title>sabor-caseiro</title><circle class="cls-1" cx="344.31" cy="304.5" r="304.5"/><path class="cls-2" d="M538,98" transform="translate(-361.19 -14)"/><path class="cls-3" d="M547,98l.5,112.5s-53,73-3.1,229.3a92.08,92.08,0,0,0,10.7,22.1c8,12.1,19.4,23,19.4-13.4V80.5Z" transform="translate(-361.19 -14)"/><rect class="cls-3" x="333.81" y="249" width="28" height="328"/><ellipse class="cls-3" cx="347.81" cy="215" rx="52" ry="68"/><polygon class="cls-3" points="480.81 72 485.81 304 511.81 304 505.81 72 480.81 72"/><path class="cls-3" d="M847,318s-28-8-28,97v58h82V415c0-105-28-97-28-97" transform="translate(-361.19 -14)"/><rect class="cls-4" x="470.81" y="344" width="10" height="115"/><rect class="cls-4" x="472.81" y="344" width="10" height="115"/><rect class="cls-5" x="470.81" y="345" width="10" height="115"/><rect class="cls-5" x="493.81" y="346" width="10" height="115"/><rect class="cls-5" x="515.81" y="345" width="10" height="115"/><polygon class="cls-5" points="494.81 70.6 508.11 79.7 510.81 71 500.81 64 494.81 70.6"/><path class="cls-3" d="M705,50A268,268,0,0,1,809.3,564.9,268,268,0,0,1,600.7,71.1,265.61,265.61,0,0,1,705,50m0-10C551.5,40,427,164.5,427,318S551.5,596,705,596,983,471.5,983,318,858.5,40,705,40Z" transform="translate(-361.19 -14)"/><text class="cls-6" transform="translate(0 719)">Sabor Caseiro</text><rect class="cls-1" x="470.81" y="344" width="12" height="117"/><rect class="cls-1" x="493.81" y="344" width="12" height="117"/><rect class="cls-1" x="515.81" y="344" width="12" height="117"/><rect class="cls-1" x="450.64" y="459" width="96" height="16.34"/></svg>