<svg id="Layer_1" data-name="Layer 1" xmlns="http://www.w3.org/2000/svg" viewBox="0 0 609 609"><defs><style>.cls-1{fill:#58120b;}.cls-2{fill:none;stroke:#fff;stroke-miterlimit:10;stroke-width:10px;}.cls-3{fill:#a3a3a3;}.cls-4{fill:#fff;}.cls-5{fill:#57120b;}</style></defs><title>sabor-caseiro</title><circle class="cls-1" cx="304.5" cy="304.5" r="304.5"/><path class="cls-2" d="M515.5,163.5" transform="translate(-378.5 -79.5)"/><path class="cls-3" d="M524.5,163.5,525,276s-53,73-3.1,229.3a92.08,92.08,0,0,0,10.7,22.1c8,12.1,19.4,23,19.4-13.4V146Z" transform="translate(-378.5 -79.5)"/><rect class="cls-3" x="294" y="249" width="28" height="328"/><ellipse class="cls-3" cx="308" cy="215" rx="52" ry="68"/><polygon class="cls-3" points="441 72 446 304 472 304 466 72 441 72"/><path class="cls-3" d="M824.5,383.5s-28-8-28,97v58h82v-58c0-105-28-97-28-97" transform="translate(-378.5 -79.5)"/><rect class="cls-4" x="431" y="344" width="10" height="115"/><rect class="cls-4" x="433" y="344" width="10" height="115"/><rect class="cls-5" x="431" y="345" width="10" height="115"/><rect class="cls-5" x="454" y="346" width="10" height="115"/><rect class="cls-5" x="476" y="345" width="10" height="115"/><polygon class="cls-5" points="455 70.6 468.3 79.7 471 71 461 64 455 70.6"/><path class="cls-3" d="M682.5,115.5A268,268,0,0,1,786.8,630.4,268,268,0,0,1,578.2,136.6a265.61,265.61,0,0,1,104.3-21.1m0-10c-153.5,0-278,124.5-278,278s124.5,278,278,278,278-124.5,278-278-124.5-278-278-278Z" transform="translate(-378.5 -79.5)"/><rect class="cls-1" x="431" y="344" width="12" height="117"/><rect class="cls-1" x="454" y="344" width="12" height="117"/><rect class="cls-1" x="476" y="344" width="12" height="117"/><rect class="cls-1" x="410.83" y="459" width="96" height="16.34"/></svg>